<svg width="1200" height="800" viewBox="0 0 1200 800" fill="none" xmlns="http://www.w3.org/2000/svg">
  <defs>
    <linearGradient id="bg" x1="0" y1="0" x2="1" y2="1">
      <stop offset="0%" stop-color="#eff6ff"/>
      <stop offset="100%" stop-color="#dbeafe"/>
    </linearGradient>
  </defs>
  <rect width="1200" height="800" fill="url(#bg)"/>
  <circle cx="930" cy="250" r="220" fill="#bfdbfe" opacity="0.45"/>
  <circle cx="760" cy="620" r="170" fill="#93c5fd" opacity="0.35"/>
  <rect x="650" y="120" width="420" height="240" rx="18" fill="white"/>
  <rect x="680" y="160" width="120" height="14" rx="7" fill="#60a5fa"/>
  <rect x="680" y="190" width="260" height="10" rx="5" fill="#cbd5e1"/>
  <rect x="680" y="210" width="240" height="10" rx="5" fill="#cbd5e1"/>
  <rect x="680" y="248" width="80" height="68" rx="8" fill="#eff6ff"/>
  <rect x="770" y="248" width="80" height="68" rx="8" fill="#e0f2fe"/>
  <rect x="860" y="248" width="80" height="68" rx="8" fill="#dbeafe"/>
  <rect x="360" y="300" width="420" height="280" rx="24" fill="white"/>
  <rect x="420" y="350" width="230" height="24" rx="12" fill="#1d4ed8" opacity="0.2"/>
  <rect x="420" y="392" width="260" height="14" rx="7" fill="#cbd5e1"/>
  <rect x="420" y="415" width="210" height="14" rx="7" fill="#cbd5e1"/>
  <rect x="420" y="470" width="150" height="46" rx="10" fill="#1d4ed8"/>
  <text x="443" y="499" fill="white" font-family="Arial" font-size="18">TAX</text>
</svg>
